<svg width="74" height="74" viewBox="0 0 100% 0" fill="#fff" xmlns="http://www.w3.org/2000/svg">

<path d="M36.9508 0.0334473C46.5799 0.0334473 55.917 3.36154 62.2312 9.73907C68.5435 16.1127 73.7939 25.0059 73.7939 34.7213C73.7939 39.5918 73.3512 45.2001 71.6232 50.0902C68.9099 57.7649 60.8736 66.6777 53.5974 70.3217C48.4528 72.8982 42.3364 73.9658 36.9508 73.9658C32.5644 73.9658 27.1259 73.2456 22.5533 71.2146C17.0874 68.7872 12.601 64.7389 9.16277 61.2676C2.85051 54.892 0 44.9627 0 35.2472C0 25.5318 5.18969 16.2775 11.502 9.90195C17.8162 3.52441 27.3198 0.0334473 36.9508 0.0334473V0.0334473ZM60.5386 11.6818C54.9022 5.98908 45.4142 1.35605 36.8078 1.35605C28.2034 1.35605 18.8565 6.30305 13.2201 11.9957C7.58177 17.6904 3.92019 26.5463 3.92019 35.2472C3.92019 43.9501 7.8247 52.6648 13.463 58.3594C16.4663 61.3932 20.3944 63.9619 24.7103 65.7005C28.4914 67.2232 32.5722 68.1082 36.5923 68.1082C45.1987 68.1082 55.3567 64.3739 60.9931 58.6813C66.6314 52.9866 70.3733 43.9501 70.3733 35.2472C70.3733 26.5463 66.1769 17.3764 60.5386 11.6818V11.6818Z" fill="#1F1F1F"/>
<path d="M65.6557 57.8653C65.5832 57.7946 41.5527 33.0537 24.7964 2.99886L25.4213 2.61621C42.5636 32.2276 67.7989 55.9128 67.8714 55.9834L65.6557 57.8653V57.8653Z" fill="#1F1F1F"/>
<path d="M8.13617 58.5032C8.21061 58.4306 32.2411 33.6917 48.9974 3.6368L48.3724 3.25415C31.2282 32.8655 5.99486 56.5487 5.92041 56.6194L8.13617 58.5032Z" fill="#1F1F1F"/>
<path d="M57.3649 63.3362C57.2924 63.2656 33.2619 38.5247 16.5056 8.46981L17.1306 8.08716C34.2728 37.6985 59.5082 61.3817 59.5806 61.4524L57.3649 63.3362Z" fill="#1F1F1F"/>
<path d="M16.4272 63.9742C16.5016 63.9016 40.5321 39.1626 57.2884 9.10775L56.6615 8.7251C39.5193 38.3365 14.2859 62.0197 14.2114 62.0903L16.4272 63.9742V63.9742Z" fill="#1F1F1F"/>
<path d="M48.6898 70.3555C48.6154 70.2829 24.5849 45.544 7.83057 15.4891L8.45552 15.1045C25.5978 44.7178 50.8331 68.4011 50.9056 68.4717L48.6898 70.3555V70.3555Z" fill="#1F1F1F"/>
<path d="M25.1042 70.9915C25.1767 70.9208 49.2072 46.1819 65.9634 16.1251L65.3385 15.7424C48.1963 45.3558 22.9609 69.039 22.8884 69.1096L25.1042 70.9915V70.9915Z" fill="#1F1F1F"/>
<path d="M45.081 41.4329C46.4053 41.4329 47.6905 41.892 48.5604 42.7692C49.4282 43.6464 50.1512 44.8708 50.1512 46.2072C50.1512 46.8763 50.0904 47.6495 49.8514 48.3226C49.4792 49.3783 48.3723 50.6047 47.3712 51.1051C46.6639 51.4603 45.8215 51.6075 45.081 51.6075C44.4776 51.6075 43.7292 51.5074 43.1003 51.2287C42.348 50.8952 41.7309 50.3379 41.2568 49.8591C40.3889 48.9819 39.9971 47.6161 39.9971 46.2798C39.9971 44.9415 40.7102 43.6679 41.58 42.7908C42.4479 41.9136 43.7566 41.4329 45.081 41.4329Z" fill="white"/>
<path d="M45.0812 41.2034C45.7825 41.2034 46.4741 41.327 47.103 41.5684C47.7162 41.8038 48.2726 42.1512 48.7232 42.6064C49.2051 43.095 49.6459 43.6857 49.9496 44.345C50.218 44.922 50.3806 45.5519 50.3806 46.2073C50.3806 46.5487 50.3649 46.9196 50.3199 47.2905C50.2728 47.6672 50.1945 48.044 50.0691 48.3972C49.8732 48.9526 49.4911 49.5472 49.0288 50.0652C48.5606 50.5911 48.0042 51.0464 47.4752 51.3113C47.1187 51.4898 46.7347 51.6174 46.3468 51.7018C45.9197 51.796 45.4867 51.8391 45.0812 51.8391C44.7442 51.8391 44.3622 51.8077 43.9782 51.7351C43.6471 51.6704 43.3141 51.5762 43.0084 51.4388C42.6127 51.2642 42.2542 51.0307 41.9329 50.7795C41.6155 50.5303 41.3354 50.2654 41.0944 50.022C40.6536 49.5766 40.3284 49.0154 40.1129 48.3992C39.8778 47.732 39.7661 47.0001 39.7661 46.2799C39.7661 45.6186 39.9307 44.973 40.201 44.3804C40.5027 43.7151 40.9377 43.1147 41.4157 42.63C41.8682 42.1728 42.4325 41.8176 43.0535 41.5782C43.6883 41.3309 44.3837 41.2034 45.0812 41.2034V41.2034ZM46.9404 41.9981C46.3624 41.7783 45.7277 41.6645 45.0812 41.6645C44.4366 41.6645 43.798 41.7823 43.2181 42.006C42.6558 42.2238 42.1484 42.5436 41.7429 42.9538C41.3001 43.4012 40.8985 43.9565 40.6203 44.5707C40.3754 45.1064 40.2265 45.6873 40.2265 46.2799C40.2265 46.953 40.3303 47.6319 40.5458 48.2442C40.7418 48.8015 41.0297 49.3038 41.4216 49.6982C41.6527 49.9318 41.9192 50.1849 42.215 50.4165C42.5089 50.646 42.8341 50.8599 43.1926 51.0189C43.4669 51.1386 43.7647 51.2249 44.0644 51.2818C44.4151 51.3486 44.7677 51.376 45.0812 51.376C45.4554 51.376 45.857 51.3368 46.2508 51.2524C46.6054 51.1739 46.9541 51.0581 47.2695 50.9012C47.7456 50.6617 48.251 50.2457 48.684 49.7591C49.1111 49.2822 49.4598 48.7406 49.6361 48.2442C49.7478 47.9263 49.8203 47.5809 49.8634 47.2355C49.9065 46.8862 49.9202 46.535 49.9202 46.2073C49.9202 45.6205 49.7733 45.0574 49.5323 44.5373C49.2521 43.931 48.8446 43.3835 48.398 42.9302C47.9944 42.524 47.4948 42.212 46.9404 41.9981V41.9981Z" fill="#1F1F1F"/>
<path d="M47.9807 43.3441C47.2794 42.6377 46.1019 42.0608 45.0323 42.0608C43.9626 42.0608 42.8008 42.677 42.1014 43.3834C41.4001 44.0918 40.9456 45.1907 40.9456 46.2719C40.9456 47.3532 41.4314 48.4364 42.1308 49.1448C42.505 49.5215 42.9928 49.8394 43.5277 50.0553C43.9979 50.2456 44.5053 50.3555 45.0048 50.3555C46.0745 50.3555 47.3362 49.8924 48.0375 49.184C48.7369 48.4776 49.2032 47.3532 49.2032 46.2719C49.2032 45.1907 48.6801 44.0525 47.9807 43.3441V43.3441Z" fill="#1F1F1F"/>
<path d="M29.0695 41.4329C30.3958 41.4329 31.681 41.892 32.5489 42.7692C33.4168 43.6464 34.1397 44.8708 34.1397 46.2072C34.1397 46.8763 34.0789 47.6495 33.8419 48.3226C33.4677 49.3783 32.3628 50.6047 31.3617 51.1051C30.6525 51.4603 29.812 51.6075 29.0695 51.6075C28.4661 51.6075 27.7177 51.5074 27.0888 51.2287C26.3365 50.8952 25.7194 50.3379 25.2473 49.8591C24.3774 48.9819 23.9856 47.6161 23.9856 46.2798C23.9856 44.9415 24.6987 43.6679 25.5686 42.7908C26.4364 41.9136 27.7451 41.4329 29.0695 41.4329Z" fill="white"/>
<path d="M29.0692 41.2034C29.7706 41.2034 30.4622 41.327 31.091 41.5684C31.7042 41.8038 32.2606 42.1512 32.7112 42.6064C33.1951 43.0931 33.634 43.6857 33.9396 44.345C34.206 44.922 34.3706 45.5519 34.3706 46.2073C34.3706 46.5487 34.3549 46.9196 34.3079 47.2905C34.2609 47.6653 34.1825 48.044 34.0591 48.3972C33.8612 48.9526 33.4792 49.5471 33.0168 50.0672C32.5486 50.5911 31.9942 51.0464 31.4633 51.3113C31.1106 51.4898 30.7247 51.6174 30.3368 51.7018C29.9077 51.796 29.4748 51.8391 29.0692 51.8391C28.7342 51.8391 28.3522 51.8077 27.9662 51.7351C27.6352 51.6704 27.3021 51.5762 26.9965 51.4388C26.6027 51.2642 26.2422 51.0307 25.9209 50.7795C25.6036 50.5303 25.3234 50.2654 25.0824 50.022C24.6416 49.5766 24.3184 49.0154 24.1009 48.3972C23.8658 47.732 23.7542 47.0001 23.7542 46.2799C23.7542 45.6186 23.9207 44.973 24.1891 44.3804C24.4908 43.7151 24.9257 43.1147 25.4057 42.63C25.8563 42.1728 26.4205 41.8195 27.0415 41.5782C27.6763 41.3309 28.3718 41.2034 29.0692 41.2034ZM30.9284 42.0001C30.3524 41.7783 29.7157 41.6645 29.0692 41.6645C28.4266 41.6645 27.788 41.7823 27.2081 42.006C26.6458 42.2257 26.1364 42.5436 25.7309 42.9538C25.2881 43.4012 24.8865 43.9565 24.6083 44.5687C24.3654 45.1064 24.2145 45.6873 24.2145 46.2799C24.2145 46.953 24.3184 47.6319 24.5339 48.2442C24.7298 48.8015 25.0197 49.3038 25.4096 49.6982C25.6408 49.9318 25.9072 50.1849 26.203 50.4165C26.4969 50.646 26.8221 50.8599 27.1806 51.0189C27.4549 51.1386 27.7547 51.2249 28.0524 51.2818C28.4031 51.3486 28.7558 51.376 29.0692 51.376C29.4434 51.376 29.845 51.3387 30.2388 51.2524C30.5915 51.1739 30.9402 51.0581 31.2576 50.8992C31.7356 50.6617 32.241 50.2457 32.672 49.761C33.0991 49.2822 33.4498 48.7406 33.6242 48.2442C33.7378 47.9263 33.8083 47.5809 33.8514 47.2355C33.8945 46.8862 33.9102 46.535 33.9102 46.2073C33.9102 45.6205 33.7613 45.0574 33.5223 44.5373C33.2402 43.931 32.8327 43.3835 32.386 42.9302C31.9824 42.524 31.4829 42.212 30.9284 42.0001V42.0001Z" fill="#1F1F1F"/>
<path d="M31.9688 43.3441C31.2694 42.6377 30.09 42.0608 29.0203 42.0608C27.9506 42.0608 26.7889 42.677 26.0895 43.3834C25.3881 44.0918 24.9336 45.1907 24.9336 46.2719C24.9336 47.3532 25.4195 48.4364 26.1189 49.1448C26.4931 49.5215 26.9809 49.8394 27.5177 50.0553C27.9879 50.2456 28.4933 50.3555 28.9929 50.3555C30.0626 50.3555 31.3242 49.8924 32.0256 49.184C32.725 48.4776 33.1913 47.3532 33.1913 46.2719C33.1913 45.1907 32.6701 44.0525 31.9688 43.3441V43.3441Z" fill="#1F1F1F"/>
<path d="M37.1467 32.6887C38.3515 32.6887 39.5192 33.1067 40.3087 33.9034C41.0963 34.7001 41.7545 35.8127 41.7545 37.0274C41.7545 37.6357 41.6977 38.3363 41.4822 38.9485C41.1433 39.9081 40.1383 41.0227 39.2292 41.4779C38.5847 41.7998 37.8206 41.9332 37.1467 41.9332C36.5981 41.9332 35.9183 41.8429 35.3463 41.5898C34.6645 41.2856 34.1022 40.7794 33.6732 40.3457C32.8837 39.549 32.5271 38.3068 32.5271 37.0922C32.5271 35.8775 33.1756 34.7197 33.9651 33.923C34.7546 33.1263 35.9438 32.6887 37.1467 32.6887V32.6887Z" fill="#1F1F1F"/>
<path d="M39.7818 34.4256C39.145 33.7839 38.0734 33.26 37.1017 33.26C36.13 33.26 35.076 33.8193 34.4392 34.4609C33.8025 35.1046 33.3892 36.1034 33.3892 37.0865C33.3892 38.0696 33.83 39.0528 34.4667 39.6964C34.8056 40.0378 35.2484 40.3283 35.7362 40.5245C36.1633 40.6972 36.6237 40.7953 37.0782 40.7953C38.0499 40.7953 39.196 40.3754 39.8327 39.7317C40.4694 39.0901 40.8906 38.0696 40.8906 37.0865C40.8906 36.1034 40.4185 35.0693 39.7818 34.4256Z" fill="white"/>
<path d="M36.8294 49.9102C38.4398 49.9102 40.0012 50.4655 41.0572 51.533C42.1132 52.5985 42.9909 54.086 42.9909 55.7108C42.9909 56.5251 42.9164 57.4631 42.6284 58.2814C42.1739 59.5647 40.8299 61.0541 39.6133 61.6644C38.7533 62.0942 37.7306 62.2727 36.8294 62.2727C36.0967 62.2727 35.1877 62.153 34.4217 61.8136C33.5087 61.4074 32.7584 60.7304 32.1824 60.1495C31.1284 59.084 30.6504 57.4239 30.6504 55.7991C30.6504 54.1743 31.5183 52.626 32.5742 51.5605C33.6302 50.493 35.219 49.9102 36.8294 49.9102V49.9102Z" fill="#1F1F1F"/>
<path d="M40.3518 52.2317C39.5016 51.3722 38.0694 50.6736 36.7706 50.6736C35.4697 50.6736 34.0591 51.4193 33.2089 52.2788C32.3567 53.1402 31.8042 54.4766 31.8042 55.7913C31.8042 57.1041 32.3939 58.4208 33.2441 59.2803C33.6987 59.7375 34.2903 60.1261 34.9427 60.389C35.5148 60.6186 36.1299 60.752 36.7372 60.752C38.0361 60.752 39.5701 60.1889 40.4204 59.3294C41.2726 58.4679 41.8388 57.1041 41.8388 55.7913C41.8388 54.4766 41.204 53.0912 40.3518 52.2317Z" fill="white"/>
</svg>
