<svg width="147" height="16" viewBox="0 0 147 16" fill="none" xmlns="http://www.w3.org/2000/svg">
<path fill-rule="evenodd" clip-rule="evenodd" d="M30.7797 2.39783L25.1855 13.4745H26.1114L27.6245 10.3944H34.709L36.2342 13.4707H37.2146L31.6203 2.39455L30.7803 2.39838L30.7797 2.39783ZM28.0134 9.64762L31.1922 3.29114L34.3473 9.64762H28.0134ZM53.6907 5.5922C53.6949 5.20982 53.617 4.83033 53.4614 4.47474C53.306 4.11939 53.0756 3.79629 52.7841 3.52294C52.0644 2.86526 50.8857 2.45086 49.4112 2.45086H44.3849V13.4215H45.2757V8.87623H49.1971L53.0139 13.4215H54.146L50.1896 8.73354C52.2089 8.4837 53.6913 7.43294 53.6913 5.59985V5.59275L53.6907 5.5922ZM45.2679 8.13272V3.21624H49.3604C51.5352 3.21624 52.8034 4.1418 52.8034 5.61407C52.8034 7.22902 51.3133 8.15459 49.3017 8.15459L45.2672 8.13326L45.2679 8.13272ZM71.0146 2.44758H69.8008L62.1636 9.64762V2.44813H61.2728V13.4215H62.1636V10.6306L65.144 7.86155L70.073 13.4106H71.2402L65.7935 7.2826L71.0146 2.44813V2.44758ZM94.0611 3.21569H98.2395V13.4352H99.1303V3.21624H103.305V2.44813H94.0611V3.21624V3.21569ZM110.467 13.4352H111.358V2.44813H110.467V13.4357V13.4352ZM127.631 12.0061L119.36 2.44813H118.52V13.4215H119.376V3.67L127.818 13.4215H128.488V2.44813H127.631V12.0066V12.0061ZM141.302 7.71832V8.43286H145.193V11.4949C144.151 12.2704 142.847 12.7004 141.497 12.7135C138.384 12.7135 136.525 10.659 136.525 7.90037C136.525 5.29534 138.497 3.10526 141.314 3.10526C141.998 3.0843 142.68 3.18662 143.32 3.40626C143.96 3.62589 144.545 3.95844 145.041 4.38454L145.605 3.79137C144.441 2.84011 142.922 2.33769 141.365 2.38689C137.902 2.38689 135.63 5.02418 135.63 7.90037C135.63 10.9302 137.801 13.4138 141.466 13.4138C143.151 13.4004 144.772 12.8312 146.025 11.8131V7.71121L141.302 7.71832ZM78.3712 3.23428H86.9301V2.4443H78.3712V3.23373V3.23428ZM84.312 7.56852H78.3712V8.35085H84.312V7.56852ZM78.3712 13.4215H86.9301V12.6392H78.3712V13.4215ZM12.8412 0L8.88114 6.23184L4.93977 0H0.162598V9.25837C1.64189 10.4595 3.24154 11.5288 4.93977 12.4527V7.86101L8.66704 13.5784H9.09523L12.8419 7.86101V15.3076H17.596V0H12.8419H12.8412Z" fill="white" fill-opacity="0.3"/>
</svg>
