<svg width="200" height="74" viewBox="0 0 200 74" fill="none" xmlns="http://www.w3.org/2000/svg">
<path d="M93.2832 33.8957H90.4797C90.4268 33.8074 90.3465 33.6033 90.2387 33.2874C89.7509 31.4055 89.2944 30.1908 88.8654 29.6473C88.4364 29.1076 87.8232 28.8368 87.0278 28.8368C86.8005 28.8368 86.6203 28.8486 86.4831 28.8702C86.4831 30.5931 86.5164 32.2689 86.5791 33.8957H84.0636C84.14 32.0943 84.1792 30.0652 84.1792 27.8086C84.1792 25.6382 84.14 23.7858 84.0636 22.2532H86.5791C86.5164 24.0213 86.4831 25.6265 86.4831 27.0747C86.726 27.0884 86.9063 27.0943 87.0278 27.0943C88.6577 27.0943 89.7274 25.6657 90.2387 22.8086C90.276 22.6025 90.3465 22.4161 90.4562 22.2532H92.8659C92.7856 22.4397 92.668 22.7674 92.5054 23.2305C92.1116 24.6257 91.6924 25.6402 91.2438 26.278C90.7932 26.9157 90.1898 27.3965 89.4277 27.7183V27.8164C90.2172 28.0735 90.8265 28.4973 91.2536 29.0958C91.6767 29.6904 92.2253 30.964 92.8894 32.9125C92.9756 33.1637 93.1049 33.4895 93.2832 33.8957ZM101.933 33.8859L99.8266 33.9604C99.7287 33.7073 99.6836 33.4797 99.6836 33.2795H99.568C98.9117 33.8368 98.0282 34.1174 96.9174 34.1174C96.1709 34.1174 95.5558 33.9114 95.064 33.4993C94.5703 33.0833 94.3274 32.5338 94.3274 31.847C94.3274 30.9424 94.7075 30.2006 95.4735 29.6237C96.2375 29.0429 97.5776 28.7387 99.4936 28.7014C99.5073 28.5954 99.5132 28.4914 99.5132 28.3973C99.5132 27.7536 99.3564 27.3278 99.0489 27.1237C98.7393 26.9157 98.1731 26.8156 97.3444 26.8156C96.4452 26.8156 95.5675 26.9353 94.7114 27.1728L94.9073 25.5283C95.7164 25.2477 96.8586 25.1064 98.3338 25.1064C99.4133 25.1064 100.244 25.3321 100.83 25.7874C101.417 26.2387 101.709 27.0334 101.709 28.1657C101.709 28.4149 101.698 28.8702 101.676 29.5315C101.658 30.1947 101.645 30.6363 101.645 30.856C101.645 32.0884 101.741 33.099 101.933 33.8859ZM99.5484 32.0275C99.5132 31.223 99.4936 30.5264 99.4936 29.9436C97.4659 29.9436 96.4511 30.4597 96.4511 31.4899C96.4511 32.1983 96.8978 32.5534 97.7911 32.5534C98.4925 32.5534 99.0763 32.3788 99.5484 32.0275ZM110.179 31.3388C110.179 32.2748 109.799 32.9734 109.036 33.4404C108.274 33.9055 107.248 34.137 105.957 34.137C104.897 34.137 103.97 34.0016 103.171 33.7348L103.377 32.108C104.137 32.418 104.999 32.5711 105.957 32.5711C107.312 32.5711 107.992 32.1865 107.992 31.4173C107.992 30.6539 107.236 30.2732 105.726 30.2732C105.089 30.2732 104.532 30.2948 104.064 30.338L104.235 28.7897C104.691 28.827 105.191 28.8447 105.733 28.8447C107.115 28.8447 107.802 28.4659 107.802 27.7104C107.802 27.0609 107.224 26.7332 106.062 26.7332C105.183 26.7332 104.327 26.8686 103.492 27.1355L103.698 25.5107C104.442 25.2418 105.398 25.1064 106.572 25.1064C108.811 25.1064 109.93 25.7638 109.93 27.0747C109.93 28.046 109.438 28.7269 108.455 29.1135V29.2548C108.909 29.3451 109.285 29.5354 109.587 29.8278C109.981 30.2085 110.179 30.7128 110.179 31.3388ZM118.987 33.8859L116.881 33.9604C116.783 33.7073 116.738 33.4797 116.738 33.2795H116.622C115.968 33.8368 115.084 34.1174 113.971 34.1174C113.225 34.1174 112.61 33.9114 112.12 33.4993C111.626 33.0833 111.381 32.5338 111.381 31.847C111.381 30.9424 111.764 30.2006 112.528 29.6237C113.292 29.0429 114.634 28.7387 116.55 28.7014C116.561 28.5954 116.567 28.4914 116.567 28.3973C116.567 27.7536 116.412 27.3278 116.105 27.1237C115.793 26.9157 115.227 26.8156 114.399 26.8156C113.499 26.8156 112.622 26.9353 111.765 27.1728L111.961 25.5283C112.772 25.2477 113.915 25.1064 115.388 25.1064C116.467 25.1064 117.298 25.3321 117.884 25.7874C118.472 26.2387 118.763 27.0334 118.763 28.1657C118.763 28.4149 118.752 28.8702 118.73 29.5315C118.712 30.1947 118.701 30.6363 118.701 30.856C118.701 32.0884 118.795 33.099 118.987 33.8859ZM116.604 32.0275C116.567 31.223 116.55 30.5264 116.55 29.9436C114.52 29.9436 113.505 30.4597 113.505 31.4899C113.505 32.1983 113.954 32.5534 114.847 32.5534C115.547 32.5534 116.132 32.3788 116.604 32.0275ZM128.839 33.8957H126.045C126.045 33.7348 125.801 33.1971 125.315 32.2866C124.85 31.4212 124.494 30.8168 124.251 30.4714H124.126C123.932 30.7403 123.608 31.3348 123.164 32.2591C122.715 33.1853 122.494 33.7269 122.494 33.8957H120.013C120.013 33.7524 120.442 33.0558 121.302 31.8019C122.161 30.5519 122.762 29.7552 123.099 29.4059V29.2724C122.817 28.9644 122.298 28.2933 121.549 27.2611C120.75 26.1602 120.35 25.5401 120.35 25.4028H123.126C123.126 25.5578 123.328 26.0189 123.724 26.7882C124.11 27.5338 124.41 28.046 124.617 28.3266H124.725C124.909 28.0951 125.183 27.5888 125.548 26.8097C125.918 26.0307 126.1 25.5617 126.1 25.4028H128.492C128.492 25.5166 128.093 26.1112 127.301 27.1904C126.506 28.2677 125.985 28.9251 125.734 29.1567V29.2901C126.073 29.6669 126.666 30.4754 127.521 31.7136C128.4 32.995 128.839 33.721 128.839 33.8957ZM136.873 32.0197L136.721 33.7249C136.178 34.0114 135.443 34.1547 134.519 34.1547C132.983 34.1547 131.799 33.725 130.977 32.8674C130.152 32.0099 129.74 30.9777 129.74 29.7728C129.74 28.5209 130.173 27.4298 131.035 26.4977C131.897 25.5656 133.079 25.0986 134.579 25.0986C135.31 25.0986 135.962 25.183 136.535 25.3478L136.229 27.1728C135.68 26.9471 135.069 26.8313 134.393 26.8313C133.67 26.8313 133.104 27.0884 132.687 27.5966C132.27 28.1068 132.062 28.7348 132.062 29.4805C132.062 30.2889 132.309 30.9757 132.802 31.537C133.296 32.0943 133.998 32.3749 134.901 32.3749C135.428 32.3749 136.086 32.2571 136.873 32.0197ZM145.262 25.4028L145.208 27.2159C144.346 27.1276 143.489 27.0845 142.639 27.0845C142.622 27.9243 142.612 28.7956 142.612 29.7022C142.612 31.2348 142.655 32.6319 142.737 33.8957H140.337C140.419 32.6967 140.461 31.2995 140.461 29.7022C140.461 28.827 140.447 27.9538 140.416 27.0845C139.554 27.0845 138.654 27.1276 137.72 27.2159L137.783 25.4028H145.262ZM153.963 33.8859L151.859 33.9604C151.761 33.7073 151.716 33.4797 151.716 33.2795H151.6C150.944 33.8368 150.06 34.1174 148.949 34.1174C148.203 34.1174 147.588 33.9114 147.096 33.4993C146.602 33.0833 146.36 32.5338 146.36 31.847C146.36 30.9424 146.74 30.2006 147.506 29.6237C148.27 29.0429 149.61 28.7387 151.526 28.7014C151.539 28.5954 151.545 28.4914 151.545 28.3973C151.545 27.7536 151.389 27.3278 151.081 27.1237C150.771 26.9157 150.203 26.8156 149.377 26.8156C148.477 26.8156 147.6 26.9353 146.743 27.1728L146.939 25.5283C147.749 25.2477 148.891 25.1064 150.366 25.1064C151.443 25.1064 152.276 25.3321 152.862 25.7874C153.45 26.2387 153.741 27.0334 153.741 28.1657C153.741 28.4149 153.73 28.8702 153.708 29.5315C153.689 30.1947 153.677 30.6363 153.677 30.856C153.677 32.0884 153.773 33.099 153.963 33.8859ZM151.581 32.0275C151.545 31.223 151.526 30.5264 151.526 29.9436C149.498 29.9436 148.483 30.4597 148.483 31.4899C148.483 32.1983 148.93 32.5534 149.823 32.5534C150.525 32.5534 151.108 32.3788 151.581 32.0275ZM163.566 33.8957H161.212C161.288 32.8341 161.327 31.6017 161.327 30.1947H157.928C157.928 31.5173 157.967 32.7516 158.05 33.8957H155.695C155.777 32.6633 155.818 31.2465 155.818 29.6473C155.818 28.0637 155.716 26.6763 155.509 25.4832L158.044 25.2222C158.006 25.6108 157.967 26.7312 157.928 28.5856H161.31C161.29 27.3867 161.196 26.3525 161.023 25.4832L163.557 25.2222C163.488 26.38 163.451 27.8537 163.451 29.6473C163.451 31.1798 163.49 32.5947 163.566 33.8957ZM172.226 32.0197L172.073 33.7249C171.53 34.0114 170.796 34.1547 169.871 34.1547C168.335 34.1547 167.152 33.725 166.329 32.8674C165.504 32.0099 165.093 30.9777 165.093 29.7728C165.093 28.5209 165.526 27.4298 166.388 26.4977C167.25 25.5656 168.431 25.0986 169.932 25.0986C170.662 25.0986 171.315 25.183 171.887 25.3478L171.581 27.1728C171.035 26.9471 170.421 26.8313 169.745 26.8313C169.023 26.8313 168.456 27.0884 168.039 27.5966C167.622 28.1068 167.414 28.7348 167.414 29.4805C167.414 30.2889 167.661 30.9757 168.155 31.537C168.648 32.0943 169.35 32.3749 170.253 32.3749C170.78 32.3749 171.438 32.2571 172.226 32.0197ZM181.526 33.8957H179.134C179.086 33.8133 179.016 33.6523 178.918 33.4129C178.573 32.214 178.217 31.3996 177.852 30.9699C177.486 30.5362 177.026 30.3184 176.475 30.3184C176.332 30.3184 176.134 30.3242 175.883 30.338C175.883 31.482 175.928 32.6692 176.019 33.8957H173.626C173.715 32.7026 173.76 31.3407 173.76 29.8101C173.76 28.0892 173.654 26.641 173.44 25.4734L175.999 25.232C175.923 26.221 175.883 27.4318 175.883 28.8643C176.14 28.8721 176.338 28.878 176.475 28.878C177.525 28.878 178.297 27.8694 178.785 25.8482C178.82 25.6991 178.889 25.5519 178.983 25.4028H181.222C181.163 25.5401 181.059 25.7933 180.91 26.1622C180.231 28.0264 179.469 29.1233 178.626 29.4432V29.5315C179.188 29.7002 179.661 30.0476 180.039 30.5794C180.417 31.1092 180.783 31.8882 181.134 32.9125C181.24 33.2265 181.371 33.5562 181.526 33.8957ZM190.208 33.8859L188.104 33.9604C188.006 33.7073 187.959 33.4797 187.959 33.2795H187.844C187.189 33.8368 186.306 34.1174 185.193 34.1174C184.447 34.1174 183.831 33.9114 183.342 33.4993C182.848 33.0833 182.605 32.5338 182.605 31.847C182.605 30.9424 182.985 30.2006 183.749 29.6237C184.515 29.0429 185.855 28.7387 187.771 28.7014C187.783 28.5954 187.789 28.4914 187.789 28.3973C187.789 27.7536 187.634 27.3278 187.327 27.1237C187.015 26.9157 186.449 26.8156 185.62 26.8156C184.721 26.8156 183.845 26.9353 182.989 27.1728L183.183 25.5283C183.994 25.2477 185.136 25.1064 186.611 25.1064C187.689 25.1064 188.522 25.3321 189.105 25.7874C189.693 26.2387 189.987 27.0334 189.987 28.1657C189.987 28.4149 189.973 28.8702 189.952 29.5315C189.934 30.1947 189.922 30.6363 189.922 30.856C189.922 32.0884 190.016 33.099 190.208 33.8859ZM187.826 32.0275C187.789 31.223 187.771 30.5264 187.771 29.9436C185.742 29.9436 184.729 30.4597 184.729 31.4899C184.729 32.1983 185.175 32.5534 186.069 32.5534C186.768 32.5534 187.354 32.3788 187.826 32.0275ZM199.544 33.8957H197.179C197.238 32.8203 197.267 31.7136 197.267 30.5695C196.893 30.5323 196.53 30.5166 196.18 30.5166C195.543 30.5166 195.087 30.6853 194.808 31.0268C194.532 31.3662 194.144 32.3219 193.645 33.8957H191.394C191.878 32.4455 192.283 31.4624 192.612 30.9424C192.943 30.4204 193.337 30.1084 193.794 30.0083V29.8729C192.499 29.5688 191.85 28.8545 191.85 27.7261C191.85 26.898 192.14 26.2819 192.726 25.8816C193.308 25.4793 194.072 25.2772 195.02 25.2772C195.786 25.2772 196.771 25.3105 197.974 25.3851L199.544 25.2144C199.467 26.5507 199.428 28.0244 199.428 29.6394C199.428 31.433 199.467 32.8517 199.544 33.8957ZM197.267 29.086C197.267 28.2285 197.249 27.475 197.216 26.8313C196.56 26.7803 195.921 26.7528 195.296 26.7528C194.45 26.7528 194.029 27.1178 194.029 27.8537C194.029 28.6995 194.656 29.1194 195.911 29.1194C196.244 29.1194 196.697 29.1115 197.267 29.086ZM200 45.4007C200 47.1335 199.471 48.5699 198.409 49.712C197.351 50.8501 196.043 51.4192 194.481 51.4192C192.992 51.4192 191.75 50.8952 190.747 49.8493C189.742 48.8034 189.244 47.473 189.244 45.8599C189.244 44.1272 189.771 42.6908 190.829 41.5487C191.891 40.4106 193.202 39.8415 194.761 39.8415C196.246 39.8415 197.492 40.3615 198.497 41.4074C199.498 42.4514 200 43.7838 200 45.4007ZM197.669 45.646C197.669 44.4667 197.365 43.511 196.764 42.7771C196.16 42.0432 195.416 41.6763 194.534 41.6763C193.709 41.6763 193.01 42.0471 192.436 42.785C191.862 43.5248 191.574 44.4588 191.574 45.5891C191.574 46.7606 191.878 47.7182 192.483 48.4541C193.088 49.188 193.829 49.5589 194.71 49.5589C195.531 49.5589 196.229 49.188 196.807 48.4463C197.381 47.7025 197.669 46.7704 197.669 45.646ZM95.497 44.5373C95.497 45.7834 95.0895 46.8293 94.2686 47.6692C93.4497 48.511 92.2018 49.0232 90.5228 49.2057C90.5424 49.9239 90.5639 50.5597 90.5894 51.115H88.2973C88.3345 50.2987 88.3521 49.6609 88.3521 49.2057C86.6359 49.0664 85.3782 48.6111 84.5808 47.8438C83.7815 47.0766 83.3799 46.0954 83.3799 44.9023C83.3799 43.6504 83.7874 42.6123 84.6024 41.7862C85.4193 40.9561 86.6673 40.4498 88.3521 40.2654L88.2973 38.7504H90.5894C90.5757 38.9271 90.5542 39.4333 90.5228 40.2654C92.239 40.4066 93.4967 40.856 94.298 41.6115C95.0973 42.365 95.497 43.3423 95.497 44.5373ZM88.4187 44.9023C88.4187 44.0409 88.4089 42.9891 88.3893 41.7391C86.5145 41.9628 85.578 42.9734 85.578 44.765C85.578 46.4643 86.5145 47.4533 88.3893 47.7339C88.4089 46.6488 88.4187 45.7069 88.4187 44.9023ZM93.2969 44.708C93.2969 43.0087 92.3605 42.0197 90.4895 41.7391C90.4699 42.8183 90.4601 43.7602 90.4601 44.5609C90.4601 45.4223 90.4699 46.48 90.4895 47.7339C92.3605 47.5102 93.2969 46.4996 93.2969 44.708ZM105.038 45.8442C105.038 46.1523 105.02 46.5585 104.985 47.0569L99.1096 47.157C99.1938 47.8458 99.4897 48.4208 99.9932 48.876C100.499 49.3332 101.161 49.5609 101.984 49.5609C102.897 49.5609 103.864 49.4255 104.893 49.1507L104.713 50.9227C103.87 51.2269 102.83 51.3799 101.592 51.3799C100.023 51.3799 98.8197 50.9384 97.9812 50.0554C97.1446 49.1723 96.7273 48.1087 96.7273 46.8666C96.7273 45.5695 97.125 44.4431 97.9165 43.4894C98.7099 42.5338 99.8129 42.0589 101.227 42.0589C102.517 42.0589 103.473 42.4102 104.098 43.1107C104.728 43.8093 105.038 44.7198 105.038 45.8442ZM102.906 45.7599C102.906 44.3588 102.307 43.6562 101.116 43.6562C99.9775 43.6562 99.3016 44.3843 99.09 45.8344L102.906 45.7599ZM115.852 49.4706C115.852 49.7139 115.77 50.5204 115.611 51.8823C115.456 53.2481 115.376 54.2567 115.376 54.9082H113.752C113.752 54.135 113.74 52.8458 113.715 51.0444C112.931 51.0071 111.914 50.9875 110.666 50.9875C109.701 50.9875 108.801 51.0071 107.967 51.0444C107.657 52.8458 107.502 54.135 107.502 54.9082H105.876C105.876 54.3411 105.871 53.4639 105.855 52.2787C105.839 51.0974 105.833 50.1574 105.833 49.4706H106.917C107.434 47.5102 108.394 45.1633 109.791 42.4337H112.647L114.306 42.2493C114.228 43.4325 114.189 44.9396 114.189 46.7724C114.189 47.628 114.238 48.5267 114.336 49.4706H115.852ZM112.146 49.4706C112.093 48.5503 112.065 47.6535 112.065 46.7724C112.065 45.8246 112.04 44.92 111.991 44.0585H110.941C109.848 46.327 109.152 48.1303 108.86 49.4706H112.146ZM124.944 45.8442C124.944 46.1523 124.927 46.5585 124.892 47.0569L119.016 47.157C119.1 47.8458 119.396 48.4208 119.9 48.876C120.405 49.3332 121.067 49.5609 121.89 49.5609C122.803 49.5609 123.771 49.4255 124.799 49.1507L124.617 50.9227C123.777 51.2269 122.737 51.3799 121.498 51.3799C119.927 51.3799 118.726 50.9384 117.888 50.0554C117.051 49.1723 116.634 48.1087 116.634 46.8666C116.634 45.5695 117.032 44.4431 117.823 43.4894C118.616 42.5338 119.719 42.0589 121.134 42.0589C122.423 42.0589 123.379 42.4102 124.004 43.1107C124.633 43.8093 124.944 44.7198 124.944 45.8442ZM122.813 45.7599C122.813 44.3588 122.213 43.6562 121.02 43.6562C119.884 43.6562 119.208 44.3843 118.997 45.8344L122.813 45.7599ZM135.39 46.3996C135.39 47.7222 135.014 48.8819 134.26 49.8807C133.506 50.8815 132.475 51.3799 131.169 51.3799C130.193 51.3799 129.527 51.1739 129.158 50.7598H129.051C129.051 52.2512 129.072 53.7641 129.115 55.2928H126.633C126.743 53.5424 126.798 51.5271 126.798 49.241C126.798 46.2936 126.639 44.0428 126.322 42.4965L128.657 42.2414L128.794 43.0263H128.941C129.591 42.4239 130.477 42.1217 131.598 42.1217C132.765 42.1217 133.688 42.5436 134.37 43.3894C135.051 44.2312 135.39 45.2359 135.39 46.3996ZM132.965 46.635C132.965 45.8678 132.775 45.2065 132.391 44.6551C132.005 44.0997 131.478 43.823 130.802 43.823C129.962 43.823 129.349 44.0683 128.959 44.5609C129.051 46.274 129.096 47.8438 129.096 49.2685C129.48 49.5687 129.975 49.7178 130.583 49.7178C131.392 49.7178 131.993 49.4176 132.381 48.8171C132.771 48.2167 132.965 47.4906 132.965 46.635ZM144.469 51.1052L142.316 51.1817C142.218 50.9227 142.171 50.6912 142.171 50.4851H142.051C141.381 51.0561 140.48 51.3426 139.342 51.3426C138.58 51.3426 137.951 51.1307 137.449 50.7108C136.944 50.285 136.695 49.7237 136.695 49.0232C136.695 48.095 137.085 47.3376 137.867 46.7489C138.648 46.1562 140.018 45.8442 141.977 45.8069C141.989 45.6971 141.997 45.5911 141.997 45.4949C141.997 44.8356 141.838 44.4019 141.522 44.1939C141.205 43.982 140.625 43.878 139.779 43.878C138.86 43.878 137.963 43.9996 137.087 44.243L137.287 42.5613C138.116 42.2748 139.283 42.1315 140.79 42.1315C141.893 42.1315 142.743 42.3631 143.341 42.8281C143.942 43.2893 144.242 44.0997 144.242 45.2575C144.242 45.5126 144.228 45.9777 144.206 46.6547C144.189 47.3317 144.175 47.783 144.175 48.0087C144.175 49.2685 144.273 50.3007 144.469 51.1052ZM142.034 49.2057C141.997 48.3835 141.977 47.6711 141.977 47.0766C139.902 47.0766 138.866 47.6025 138.866 48.6582C138.866 49.3803 139.324 49.7434 140.235 49.7434C140.952 49.7434 141.55 49.5648 142.034 49.2057ZM155.244 49.4706C155.244 49.7218 155.166 50.5263 155.011 51.8882C154.854 53.2481 154.778 54.2567 154.778 54.9082H153.126C153.126 54.135 153.116 52.8693 153.099 51.115H146.238C146.322 49.8552 146.365 48.407 146.365 46.7724C146.365 45.1535 146.26 43.7347 146.048 42.5161L148.673 42.2493C148.601 43.4325 148.564 44.9396 148.564 46.7724C148.564 47.5711 148.552 48.4698 148.526 49.4706H151.485C151.461 48.4894 151.447 47.5907 151.447 46.7724C151.447 45.1535 151.345 43.7347 151.136 42.5161L153.755 42.2493C153.685 43.4325 153.645 44.9396 153.645 46.7724C153.645 47.7182 153.671 48.617 153.718 49.4706H155.244ZM164.74 51.115H162.332C162.411 50.0357 162.45 48.8289 162.45 47.4867C162.45 46.9451 162.485 46.272 162.55 45.4655H162.412C162.254 45.9247 161.531 46.9039 160.242 48.4109C159.051 49.7983 158.455 50.701 158.455 51.115H156.565C156.645 49.7865 156.682 48.3383 156.682 46.7724C156.682 45.0142 156.58 43.5954 156.374 42.5161L158.964 42.2493C158.89 43.4188 158.857 44.5825 158.857 45.7402C158.857 46.3525 158.821 47.1354 158.753 48.0891H158.89C159.006 47.7065 159.697 46.7547 160.963 45.2379C162.154 43.8073 162.753 42.8988 162.753 42.5161L164.73 42.2493C164.658 43.4188 164.62 44.9298 164.62 46.7724C164.62 48.2363 164.662 49.6845 164.74 51.115ZM174.455 51.115H172.04C172.098 50.0181 172.13 48.8858 172.13 47.7143C171.746 47.677 171.375 47.6613 171.017 47.6613C170.366 47.6613 169.9 47.834 169.616 48.1833C169.332 48.5287 168.938 49.5059 168.427 51.115H166.125C166.621 49.6335 167.034 48.6288 167.371 48.095C167.71 47.5632 168.112 47.2434 168.58 47.1413V47.004C167.255 46.692 166.593 45.962 166.593 44.8081C166.593 43.9624 166.889 43.3325 167.487 42.9243C168.08 42.5122 168.862 42.3062 169.832 42.3062C170.615 42.3062 171.622 42.3395 172.853 42.4161L174.455 42.2414C174.379 43.6072 174.338 45.1142 174.338 46.7646C174.338 48.5974 174.379 50.0475 174.455 51.115ZM172.13 46.1994C172.13 45.3223 172.11 44.553 172.077 43.8937C171.407 43.8407 170.752 43.8132 170.114 43.8132C169.25 43.8132 168.819 44.188 168.819 44.9396C168.819 45.803 169.461 46.2328 170.745 46.2328C171.084 46.2328 171.548 46.2249 172.13 46.1994ZM188.388 39.2155L188.328 41.2995C186.369 41.2073 184.631 41.1641 183.116 41.1641C183.214 42.1256 183.263 43.5758 183.263 45.5126C183.263 48.0499 183.291 49.9141 183.344 51.115H180.809C180.881 49.4588 180.918 47.4847 180.918 45.1947C180.918 42.5299 180.881 40.5381 180.809 39.2155H188.388Z" fill="white"/>
<path d="M36.9508 0.0334473C46.5799 0.0334473 55.917 3.36154 62.2312 9.73907C68.5435 16.1127 73.7939 25.0059 73.7939 34.7213C73.7939 39.5918 73.3512 45.2001 71.6232 50.0902C68.9099 57.7649 60.8736 66.6777 53.5974 70.3217C48.4528 72.8982 42.3364 73.9658 36.9508 73.9658C32.5644 73.9658 27.1259 73.2456 22.5533 71.2146C17.0874 68.7872 12.601 64.7389 9.16277 61.2676C2.85051 54.892 0 44.9627 0 35.2472C0 25.5318 5.18969 16.2775 11.502 9.90195C17.8162 3.52441 27.3198 0.0334473 36.9508 0.0334473V0.0334473ZM60.5386 11.6818C54.9022 5.98908 45.4142 1.35605 36.8078 1.35605C28.2034 1.35605 18.8565 6.30305 13.2201 11.9957C7.58177 17.6904 3.92019 26.5463 3.92019 35.2472C3.92019 43.9501 7.8247 52.6648 13.463 58.3594C16.4663 61.3932 20.3944 63.9619 24.7103 65.7005C28.4914 67.2232 32.5722 68.1082 36.5923 68.1082C45.1987 68.1082 55.3567 64.3739 60.9931 58.6813C66.6314 52.9866 70.3733 43.9501 70.3733 35.2472C70.3733 26.5463 66.1769 17.3764 60.5386 11.6818Z" fill="white"/>
<path d="M65.6557 57.8654C65.5832 57.7948 41.5527 33.0539 24.7964 2.99898L25.4213 2.61633C42.5636 32.2277 67.7989 55.9129 67.8714 55.9835L65.6557 57.8654Z" fill="white"/>
<path d="M8.13617 58.5032C8.21061 58.4306 32.2411 33.6917 48.9974 3.6368L48.3724 3.25415C31.2282 32.8655 5.99486 56.5487 5.92041 56.6194L8.13617 58.5032Z" fill="white"/>
<path d="M57.3649 63.3363C57.2924 63.2656 33.2619 38.5247 16.5056 8.46987L17.1306 8.08722C34.2728 37.6986 59.5082 61.3818 59.5806 61.4524L57.3649 63.3363Z" fill="white"/>
<path d="M16.4272 63.9742C16.5016 63.9016 40.5321 39.1626 57.2884 9.10775L56.6615 8.7251C39.5193 38.3365 14.2859 62.0197 14.2114 62.0903L16.4272 63.9742Z" fill="white"/>
<path d="M48.6898 70.3555C48.6154 70.2829 24.5849 45.5439 7.83057 15.489L8.45552 15.1044C25.5978 44.7178 50.8331 68.401 50.9056 68.4717L48.6898 70.3555Z" fill="white"/>
<path d="M25.1042 70.9914C25.1767 70.9208 49.2072 46.1818 65.9634 16.125L65.3385 15.7424C48.1963 45.3557 22.9609 69.0389 22.8884 69.1096L25.1042 70.9914Z" fill="white"/>
<path d="M45.081 41.4329C46.4053 41.4329 47.6905 41.892 48.5604 42.7692C49.4282 43.6464 50.1512 44.8708 50.1512 46.2072C50.1512 46.8763 50.0904 47.6495 49.8514 48.3226C49.4792 49.3783 48.3723 50.6047 47.3712 51.1051C46.6639 51.4603 45.8215 51.6075 45.081 51.6075C44.4776 51.6075 43.7292 51.5074 43.1003 51.2287C42.348 50.8952 41.7309 50.3379 41.2568 49.859C40.3889 48.9819 39.9971 47.6161 39.9971 46.2798C39.9971 44.9415 40.7102 43.6679 41.58 42.7908C42.4479 41.9136 43.7566 41.4329 45.081 41.4329Z" fill="black"/>
<path d="M45.0812 41.2034C45.7825 41.2034 46.4741 41.327 47.103 41.5684C47.7162 41.8038 48.2726 42.1512 48.7232 42.6064C49.2051 43.095 49.6459 43.6857 49.9496 44.345C50.218 44.922 50.3806 45.5519 50.3806 46.2073C50.3806 46.5487 50.3649 46.9196 50.3199 47.2905C50.2728 47.6672 50.1945 48.044 50.0691 48.3972C49.8732 48.9526 49.4911 49.5472 49.0288 50.0652C48.5606 50.5911 48.0042 51.0464 47.4752 51.3113C47.1187 51.4898 46.7347 51.6174 46.3468 51.7018C45.9197 51.796 45.4867 51.8391 45.0812 51.8391C44.7442 51.8391 44.3622 51.8077 43.9782 51.7351C43.6471 51.6704 43.3141 51.5762 43.0084 51.4388C42.6127 51.2642 42.2542 51.0307 41.9329 50.7795C41.6155 50.5303 41.3354 50.2654 41.0944 50.022C40.6536 49.5766 40.3284 49.0154 40.1129 48.3992C39.8778 47.732 39.7661 47.0001 39.7661 46.2799C39.7661 45.6186 39.9307 44.973 40.201 44.3804C40.5027 43.7151 40.9377 43.1147 41.4157 42.63C41.8682 42.1728 42.4325 41.8176 43.0535 41.5782C43.6883 41.3309 44.3837 41.2034 45.0812 41.2034ZM46.9404 41.9981C46.3624 41.7783 45.7277 41.6645 45.0812 41.6645C44.4366 41.6645 43.798 41.7823 43.2181 42.006C42.6558 42.2238 42.1484 42.5436 41.7429 42.9538C41.3001 43.4012 40.8985 43.9565 40.6203 44.5707C40.3754 45.1064 40.2265 45.6873 40.2265 46.2799C40.2265 46.953 40.3303 47.6319 40.5458 48.2442C40.7418 48.8015 41.0297 49.3038 41.4216 49.6982C41.6527 49.9318 41.9192 50.1849 42.215 50.4165C42.5089 50.646 42.8341 50.8599 43.1926 51.0189C43.4669 51.1386 43.7647 51.2249 44.0644 51.2818C44.4151 51.3486 44.7677 51.376 45.0812 51.376C45.4554 51.376 45.857 51.3368 46.2508 51.2524C46.6054 51.1739 46.9541 51.0581 47.2695 50.9011C47.7456 50.6617 48.251 50.2457 48.684 49.7591C49.1111 49.2822 49.4598 48.7406 49.6361 48.2442C49.7478 47.9263 49.8203 47.5809 49.8634 47.2355C49.9065 46.8862 49.9202 46.535 49.9202 46.2073C49.9202 45.6205 49.7733 45.0574 49.5323 44.5373C49.2521 43.931 48.8446 43.3835 48.398 42.9302C47.9944 42.524 47.4948 42.212 46.9404 41.9981Z" fill="white"/>
<path d="M47.9807 43.3441C47.2794 42.6377 46.1019 42.0608 45.0323 42.0608C43.9626 42.0608 42.8008 42.677 42.1014 43.3834C41.4001 44.0918 40.9456 45.1907 40.9456 46.2719C40.9456 47.3532 41.4314 48.4364 42.1308 49.1448C42.505 49.5215 42.9928 49.8394 43.5277 50.0553C43.9979 50.2456 44.5053 50.3555 45.0048 50.3555C46.0745 50.3555 47.3362 49.8924 48.0375 49.184C48.7369 48.4776 49.2032 47.3532 49.2032 46.2719C49.2032 45.1907 48.6801 44.0525 47.9807 43.3441Z" fill="white"/>
<path d="M29.0695 41.4329C30.3958 41.4329 31.681 41.892 32.5489 42.7692C33.4168 43.6464 34.1397 44.8708 34.1397 46.2072C34.1397 46.8763 34.0789 47.6495 33.8419 48.3226C33.4677 49.3783 32.3628 50.6047 31.3617 51.1051C30.6525 51.4603 29.812 51.6075 29.0695 51.6075C28.4661 51.6075 27.7177 51.5074 27.0888 51.2287C26.3365 50.8952 25.7194 50.3379 25.2473 49.859C24.3774 48.9819 23.9856 47.6161 23.9856 46.2798C23.9856 44.9415 24.6987 43.6679 25.5686 42.7908C26.4364 41.9136 27.7451 41.4329 29.0695 41.4329Z" fill="black"/>
<path d="M29.0692 41.2034C29.7706 41.2034 30.4622 41.327 31.091 41.5684C31.7042 41.8038 32.2606 42.1512 32.7112 42.6064C33.1951 43.0931 33.634 43.6857 33.9396 44.345C34.206 44.922 34.3706 45.5519 34.3706 46.2073C34.3706 46.5487 34.3549 46.9196 34.3079 47.2905C34.2609 47.6653 34.1825 48.044 34.0591 48.3972C33.8612 48.9526 33.4792 49.5471 33.0168 50.0672C32.5486 50.5911 31.9942 51.0464 31.4633 51.3113C31.1106 51.4898 30.7247 51.6174 30.3368 51.7018C29.9077 51.796 29.4748 51.8391 29.0692 51.8391C28.7342 51.8391 28.3522 51.8077 27.9662 51.7351C27.6352 51.6704 27.3021 51.5762 26.9965 51.4388C26.6027 51.2642 26.2422 51.0307 25.9209 50.7795C25.6036 50.5303 25.3234 50.2654 25.0824 50.022C24.6416 49.5766 24.3184 49.0154 24.1009 48.3972C23.8658 47.732 23.7542 47.0001 23.7542 46.2799C23.7542 45.6186 23.9207 44.973 24.1891 44.3804C24.4908 43.7151 24.9257 43.1147 25.4057 42.63C25.8563 42.1728 26.4205 41.8195 27.0415 41.5782C27.6763 41.3309 28.3718 41.2034 29.0692 41.2034ZM30.9284 42.0001C30.3524 41.7783 29.7157 41.6645 29.0692 41.6645C28.4266 41.6645 27.788 41.7823 27.2081 42.006C26.6458 42.2257 26.1364 42.5436 25.7309 42.9538C25.2881 43.4012 24.8865 43.9565 24.6083 44.5687C24.3654 45.1064 24.2145 45.6873 24.2145 46.2799C24.2145 46.953 24.3184 47.6319 24.5339 48.2442C24.7298 48.8015 25.0197 49.3038 25.4096 49.6982C25.6408 49.9318 25.9072 50.1849 26.203 50.4165C26.4969 50.646 26.8221 50.8599 27.1806 51.0189C27.4549 51.1386 27.7547 51.2249 28.0524 51.2818C28.4031 51.3486 28.7558 51.376 29.0692 51.376C29.4434 51.376 29.845 51.3387 30.2388 51.2524C30.5915 51.1739 30.9402 51.0581 31.2576 50.8992C31.7356 50.6617 32.241 50.2457 32.672 49.761C33.0991 49.2822 33.4498 48.7406 33.6242 48.2442C33.7378 47.9263 33.8083 47.5809 33.8514 47.2355C33.8945 46.8862 33.9102 46.535 33.9102 46.2073C33.9102 45.6205 33.7613 45.0574 33.5223 44.5373C33.2402 43.931 32.8327 43.3835 32.386 42.9302C31.9824 42.524 31.4829 42.212 30.9284 42.0001Z" fill="white"/>
<path d="M31.9688 43.3441C31.2694 42.6377 30.09 42.0608 29.0203 42.0608C27.9506 42.0608 26.7889 42.677 26.0895 43.3834C25.3881 44.0918 24.9336 45.1907 24.9336 46.2719C24.9336 47.3532 25.4195 48.4364 26.1189 49.1448C26.4931 49.5215 26.9809 49.8394 27.5177 50.0553C27.9879 50.2456 28.4933 50.3555 28.9929 50.3555C30.0626 50.3555 31.3242 49.8924 32.0256 49.184C32.725 48.4776 33.1913 47.3532 33.1913 46.2719C33.1913 45.1907 32.6701 44.0525 31.9688 43.3441Z" fill="white"/>
<path d="M37.1467 32.6888C38.3515 32.6888 39.5192 33.1068 40.3087 33.9035C41.0963 34.7002 41.7545 35.8129 41.7545 37.0275C41.7545 37.6358 41.6977 38.3364 41.4822 38.9486C41.1433 39.9082 40.1383 41.0228 39.2292 41.4781C38.5847 41.7999 37.8206 41.9333 37.1467 41.9333C36.5981 41.9333 35.9183 41.8431 35.3463 41.5899C34.6645 41.2858 34.1022 40.7795 33.6732 40.3458C32.8837 39.5491 32.5271 38.307 32.5271 37.0923C32.5271 35.8776 33.1756 34.7198 33.9651 33.9231C34.7546 33.1264 35.9438 32.6888 37.1467 32.6888Z" fill="white"/>
<path d="M39.7818 34.4255C39.145 33.7838 38.0734 33.2599 37.1017 33.2599C36.13 33.2599 35.076 33.8191 34.4392 34.4608C33.8025 35.1045 33.3892 36.1033 33.3892 37.0864C33.3892 38.0695 33.83 39.0526 34.4667 39.6963C34.8056 40.0377 35.2484 40.3281 35.7362 40.5244C36.1633 40.6971 36.6237 40.7952 37.0782 40.7952C38.0499 40.7952 39.196 40.3752 39.8327 39.7316C40.4694 39.0899 40.8906 38.0695 40.8906 37.0864C40.8906 36.1033 40.4185 35.0691 39.7818 34.4255Z" fill="black"/>
<path d="M36.8294 49.9102C38.4398 49.9102 40.0012 50.4655 41.0572 51.533C42.1132 52.5985 42.9909 54.086 42.9909 55.7108C42.9909 56.5251 42.9164 57.4631 42.6284 58.2814C42.1739 59.5647 40.8299 61.0541 39.6133 61.6644C38.7533 62.0942 37.7306 62.2727 36.8294 62.2727C36.0967 62.2727 35.1877 62.153 34.4217 61.8136C33.5087 61.4074 32.7584 60.7304 32.1824 60.1495C31.1284 59.084 30.6504 57.4239 30.6504 55.7991C30.6504 54.1743 31.5183 52.626 32.5742 51.5605C33.6302 50.493 35.219 49.9102 36.8294 49.9102Z" fill="white"/>
<path d="M40.3518 52.2317C39.5016 51.3722 38.0694 50.6736 36.7706 50.6736C35.4697 50.6736 34.0591 51.4193 33.2089 52.2788C32.3567 53.1402 31.8042 54.4766 31.8042 55.7913C31.8042 57.1041 32.3939 58.4208 33.2441 59.2803C33.6987 59.7375 34.2903 60.1261 34.9427 60.389C35.5148 60.6186 36.1299 60.752 36.7372 60.752C38.0361 60.752 39.5701 60.1889 40.4204 59.3294C41.2726 58.4679 41.8388 57.1041 41.8388 55.7913C41.8388 54.4766 41.204 53.0912 40.3518 52.2317Z" fill="black"/>
</svg>
