<?xml version="1.0" encoding="iso-8859-1"?>
<!-- Generator: Adobe Illustrator 18.0.0, SVG Export Plug-In . SVG Version: 6.00 Build 0)  -->
<!DOCTYPE svg PUBLIC "-//W3C//DTD SVG 1.1//EN" "http://www.w3.org/Graphics/SVG/1.1/DTD/svg11.dtd">
<svg fill="#C0C0C0" version="1.1" id="Capa_1" xmlns="http://www.w3.org/2000/svg" xmlns:xlink="http://www.w3.org/1999/xlink" x="0px" y="0px"
	 viewBox="0 0 297 297" style="enable-background:new 0 0 297 297;" xml:space="preserve">
<g>
	<path d="M122.565,245.223h-17.288c-5.615,0-10.169,4.554-10.169,10.17c0,5.615,4.554,10.169,10.169,10.169h17.288
		c5.616,0,10.169-4.554,10.169-10.169C132.734,249.776,128.182,245.223,122.565,245.223z"/>
	<path d="M269.521,51.874h-58.988V10.169C210.532,4.553,205.979,0,200.363,0H27.48c-5.615,0-10.169,4.553-10.169,10.169v276.662
		c0,5.615,4.554,10.169,10.169,10.169h172.884c5.616,0,10.169-4.554,10.169-10.169v-110.87h58.988
		c5.615,0,10.169-4.554,10.169-10.169V62.043C279.689,56.428,275.136,51.874,269.521,51.874z M165.787,102.548l-60.659-30.335
		h121.32L165.787,102.548z M72.227,78.499l41.818,20.912l-41.818,41.827V78.499z M133.218,109l28.02,14.014
		c1.433,0.716,2.99,1.073,4.549,1.073c1.558,0,3.117-0.358,4.548-1.073L198.359,109l46.613,46.622H86.604L133.218,109z
		 M217.532,99.411l41.818-20.912v62.739L217.532,99.411z M37.649,276.661v-39.396h152.545v39.396H37.649z M190.194,216.927H37.649
		V20.339h152.545v31.535H62.058c-5.616,0-10.17,4.554-10.17,10.169v103.749c0,5.615,4.554,10.169,10.17,10.169h128.137V216.927z"/>
</g>
<g>
</g>
<g>
</g>
<g>
</g>
<g>
</g>
<g>
</g>
<g>
</g>
<g>
</g>
<g>
</g>
<g>
</g>
<g>
</g>
<g>
</g>
<g>
</g>
<g>
</g>
<g>
</g>
<g>
</g>
</svg>
