<svg width="34" height="34" viewBox="0 0 34 34" fill="none" xmlns="http://www.w3.org/2000/svg">
<g filter="url(#filter0_b_104_782)">
<circle cx="17" cy="17" r="17" fill="white" fill-opacity="0.3"/>
</g>
<path d="M23.1667 11.6666C23.1667 12.8633 22.1968 13.8334 21.0001 13.8334C19.8035 13.8334 18.8335 12.8633 18.8335 11.6666C18.8335 10.4701 19.8035 9.5 21.0001 9.5C22.1968 9.5 23.1667 10.4701 23.1667 11.6666Z" fill="white"/>
<path d="M21.0001 14.3334C19.5294 14.3334 18.3335 13.1373 18.3335 11.6666C18.3335 10.196 19.5294 9 21.0001 9C22.4708 9 23.6667 10.196 23.6667 11.6666C23.6667 13.1373 22.4708 14.3334 21.0001 14.3334ZM21.0001 10C20.0808 10 19.3335 10.748 19.3335 11.6666C19.3335 12.5853 20.0808 13.3334 21.0001 13.3334C21.9194 13.3334 22.6667 12.5853 22.6667 11.6666C22.6667 10.748 21.9194 10 21.0001 10Z" fill="white"/>
<path d="M23.1667 22.3334C23.1667 23.5299 22.1968 24.5 21.0001 24.5C19.8035 24.5 18.8335 23.5299 18.8335 22.3334C18.8335 21.1367 19.8035 20.1666 21.0001 20.1666C22.1968 20.1666 23.1667 21.1367 23.1667 22.3334Z" fill="white"/>
<path d="M21.0001 25C19.5294 25 18.3335 23.804 18.3335 22.3334C18.3335 20.8627 19.5294 19.6666 21.0001 19.6666C22.4708 19.6666 23.6667 20.8627 23.6667 22.3334C23.6667 23.804 22.4708 25 21.0001 25ZM21.0001 20.6666C20.0808 20.6666 19.3335 21.4147 19.3335 22.3334C19.3335 23.252 20.0808 24 21.0001 24C21.9194 24 22.6667 23.252 22.6667 22.3334C22.6667 21.4147 21.9194 20.6666 21.0001 20.6666Z" fill="white"/>
<path d="M13.8334 17C13.8334 18.1967 12.8633 19.1666 11.6666 19.1666C10.4701 19.1666 9.5 18.1967 9.5 17C9.5 15.8033 10.4701 14.8334 11.6666 14.8334C12.8633 14.8334 13.8334 15.8033 13.8334 17Z" fill="white"/>
<path d="M11.6666 19.6666C10.196 19.6666 9 18.4707 9 17C9 15.5293 10.196 14.3334 11.6666 14.3334C13.1373 14.3334 14.3334 15.5293 14.3334 17C14.3334 18.4707 13.1373 19.6666 11.6666 19.6666ZM11.6666 15.3334C10.7473 15.3334 10 16.0813 10 17C10 17.9187 10.7473 18.6666 11.6666 18.6666C12.5861 18.6666 13.3334 17.9187 13.3334 17C13.3334 16.0813 12.5861 15.3334 11.6666 15.3334Z" fill="white"/>
<path d="M13.2406 16.6801C13.0085 16.6801 12.7832 16.5593 12.6605 16.3434C12.4785 16.0241 12.5905 15.6167 12.9099 15.434L19.0958 11.9074C19.4151 11.724 19.8225 11.8361 20.0052 12.1566C20.1872 12.476 20.0752 12.8833 19.7558 13.066L13.5698 16.5927C13.4658 16.652 13.3525 16.6801 13.2406 16.6801Z" fill="white"/>
<path d="M19.4261 22.1801C19.3141 22.1801 19.2008 22.152 19.0968 22.0927L12.9108 18.566C12.5914 18.384 12.4795 17.9767 12.6615 17.6566C12.8428 17.3367 13.2507 17.224 13.5708 17.4073L19.7568 20.934C20.0762 21.116 20.1881 21.5233 20.0061 21.8434C19.8828 22.0593 19.6575 22.1801 19.4261 22.1801Z" fill="white"/>
<defs>
<filter id="filter0_b_104_782" x="-5" y="-5" width="44" height="44" filterUnits="userSpaceOnUse" color-interpolation-filters="sRGB">
<feFlood flood-opacity="0" result="BackgroundImageFix"/>
<feGaussianBlur in="BackgroundImage" stdDeviation="2.5"/>
<feComposite in2="SourceAlpha" operator="in" result="effect1_backgroundBlur_104_782"/>
<feBlend mode="normal" in="SourceGraphic" in2="effect1_backgroundBlur_104_782" result="shape"/>
</filter>
</defs>
</svg>
